<svg id="Layer_1" data-name="Layer 1" xmlns="http://www.w3.org/2000/svg" viewBox="0 0 25 25"><defs><style>.cls-1{fill:#f0516f;}.cls-2{fill:none;}</style></defs><path class="cls-1" d="M16.13,20.74H8.88a1.9,1.9,0,0,1-1.71-2V6.31a1.9,1.9,0,0,1,1.71-2h7.25a1.9,1.9,0,0,1,1.7,2.05V18.69A1.9,1.9,0,0,1,16.13,20.74ZM8.88,5.26c-.39,0-.71.48-.71,1V18.69c0,.57.32,1,.71,1h7.25c.38,0,.7-.48.7-1V6.31c0-.57-.32-1-.7-1Z"/><path class="cls-1" d="M13.11,18.23H12a.5.5,0,0,1-.49-.51.46.46,0,0,1,.5-.49h1.16a.5.5,0,0,1,0,1Z"/><circle class="cls-2" cx="12.5" cy="12.5" r="12"/></svg>