<svg id="Layer_1" data-name="Layer 1" xmlns="http://www.w3.org/2000/svg" viewBox="0 0 25 25"><defs><style>.cls-1{fill:#5c64eb;}.cls-2{fill:none;}</style></defs><path class="cls-1" d="M13.61,20.39h-3a.51.51,0,0,1-.5-.5V14.48H8.44a.5.5,0,0,1-.5-.5V11a.5.5,0,0,1,.5-.5h1.71V8.81a4.2,4.2,0,0,1,4.2-4.2h2.21a.5.5,0,0,1,.5.5v3a.5.5,0,0,1-.5.5H14.35a.23.23,0,0,0-.24.24v1.71h2.45a.5.5,0,0,1,.49.62l-.74,3a.51.51,0,0,1-.48.38H14.11v5.41A.51.51,0,0,1,13.61,20.39Zm-2.46-1h2V14a.5.5,0,0,1,.5-.5h1.82l.49-2H13.61a.5.5,0,0,1-.5-.5V8.81a1.23,1.23,0,0,1,1.24-1.24h1.71v-2H14.35a3.2,3.2,0,0,0-3.2,3.2V11a.5.5,0,0,1-.5.5H8.94v2h1.71a.5.5,0,0,1,.5.5Z"/><circle class="cls-2" cx="12.5" cy="12.5" r="12"/></svg>