<svg id="Layer_1" data-name="Layer 1" xmlns="http://www.w3.org/2000/svg" viewBox="0 0 25 25"><defs><style>.cls-1{fill:#38aaaf;}.cls-2{fill:none;}</style></defs><path class="cls-1" d="M16.41,13.71v1.06a.71.71,0,0,1-.7.7h-.07a7,7,0,0,1-3-1.08A7,7,0,0,1,9.43,9.24a.69.69,0,0,1,.63-.76h1.12a.71.71,0,0,1,.7.61,4.15,4.15,0,0,0,.25,1,.72.72,0,0,1-.16.74l-.45.45a5.62,5.62,0,0,0,2.11,2.11l.44-.45a.74.74,0,0,1,.75-.16,4.55,4.55,0,0,0,1,.25A.72.72,0,0,1,16.41,13.71Z"/><path class="cls-1" d="M5.32,20.18A.49.49,0,0,1,5,20a.5.5,0,0,1-.12-.51L6.3,15.17A7.28,7.28,0,0,1,12.88,4.82h.42a7.27,7.27,0,0,1,6.88,6.86v.42a7.37,7.37,0,0,1-.77,3.26,7.24,7.24,0,0,1-6.51,4h0a7.15,7.15,0,0,1-3.05-.68L5.48,20.15A.41.41,0,0,1,5.32,20.18ZM12.88,5.82a6.17,6.17,0,0,0-2.79.67,6.26,6.26,0,0,0-2.8,8.42.46.46,0,0,1,0,.38l-1.2,3.6,3.6-1.2a.5.5,0,0,1,.38,0,6.8,6.8,0,0,0,2.81.66,6.3,6.3,0,0,0,6.28-6.28h0v-.4a6.26,6.26,0,0,0-5.91-5.88h-.39Zm7.3,6.28h0Z"/><circle class="cls-2" cx="12.5" cy="12.5" r="12"/></svg>